<svg xmlns="http://www.w3.org/2000/svg" xmlns:xlink="http://www.w3.org/1999/xlink" width="46" height="46" viewBox="0 0 46 46">
  <defs>
    <filter id="плашка_copy_4" x="0" y="0" width="46" height="46" filterUnits="userSpaceOnUse">
      <feOffset dy="1" input="SourceAlpha"/>
      <feGaussianBlur stdDeviation="1" result="blur"/>
      <feFlood flood-opacity="0.161"/>
      <feComposite operator="in" in2="blur"/>
      <feComposite in="SourceGraphic"/>
    </filter>
  </defs>
  <g id="стрелка_влево" data-name="стрелка влево" transform="translate(-108 -1954)">
    <g transform="matrix(1, 0, 0, 1, 108, 1954)" filter="url(#плашка_copy_4)">
      <circle id="плашка_copy_4-2" data-name="плашка copy 4" cx="20" cy="20" r="20" transform="translate(3 2)" fill="#fff" opacity="0.6"/>
    </g>
    <path id="стрелка_влево_copy_2" data-name="стрелка влево copy 2" d="M125.441,1977.05a1.486,1.486,0,0,1,0-2.119l6.843-6.641a1.022,1.022,0,0,1,1.431,0,.99.99,0,0,1,0,1.412l-6.487,6.288,6.487,6.287a.99.99,0,0,1,0,1.412,1.019,1.019,0,0,1-1.431,0l-6.843-6.64Z" fill="#f77b91"/>
  </g>
</svg>
