<svg xmlns="http://www.w3.org/2000/svg" xmlns:xlink="http://www.w3.org/1999/xlink" width="46" height="46" viewBox="0 0 46 46">
  <defs>
    <filter id="плашка_copy_3" x="0" y="0" width="46" height="46" filterUnits="userSpaceOnUse">
      <feOffset dy="1" input="SourceAlpha"/>
      <feGaussianBlur stdDeviation="1" result="blur"/>
      <feFlood flood-opacity="0.161"/>
      <feComposite operator="in" in2="blur"/>
      <feComposite in="SourceGraphic"/>
    </filter>
  </defs>
  <g id="стрелка_вправо" data-name="стрелка вправо" transform="translate(-654 -1954)">
    <g transform="matrix(1, 0, 0, 1, 654, 1954)" filter="url(#плашка_copy_3)">
      <circle id="плашка_copy_3-2" data-name="плашка copy 3" cx="20" cy="20" r="20" transform="translate(3 2)" fill="#fff" opacity="0.6"/>
    </g>
    <path id="стрелка_вправо_copy_2" data-name="стрелка вправо copy 2" d="M682.561,1977.05a1.49,1.49,0,0,0,0-2.119l-6.82-6.641a1.016,1.016,0,0,0-1.426,0,.993.993,0,0,0,0,1.412l6.464,6.288-6.464,6.287a.992.992,0,0,0,0,1.412,1.013,1.013,0,0,0,1.426,0l6.82-6.64Z" fill="#f77b91"/>
  </g>
</svg>
